<svg xmlns="http://www.w3.org/2000/svg" width="271" height="229" viewBox="0 0 271 229">
  <g id="logo-dark-02" transform="translate(-2776 -2477)">
    <text id="atlanta" transform="translate(2789 2549)" font-size="69" font-family="Poppins-Bold, Poppins" font-weight="700" letter-spacing="-0.047em"><tspan x="0" y="0">atlanta</tspan></text>
    <text id="society" transform="translate(2789 2682)" font-size="69" font-family="Poppins-Bold, Poppins" font-weight="700" letter-spacing="-0.047em"><tspan x="0" y="0">society</tspan></text>
    <text id="hu" transform="translate(2776 2616)" font-size="69" font-family="Poppins-Bold, Poppins" font-weight="700" letter-spacing="-0.047em"><tspan x="0" y="0">hu</tspan></text>
    <text id="ane" transform="translate(2917 2616)" font-size="69" font-family="Poppins-Bold, Poppins" font-weight="700" letter-spacing="-0.047em"><tspan x="0" y="0">ane</tspan></text>
    <g id="Group_72" data-name="Group 72" transform="translate(60 3)">
      <g id="ahs-heart-red" transform="translate(2804.5 2565)">
        <path id="Path_422" data-name="Path 422" d="M21,10.145c3.006-3.26,13.189-7.43,18.6-3.519C46.364,11.515,54.255,22.1,21,47.086" transform="translate(2.41 -0.043)" fill="none" stroke="#ec1d30" stroke-width="12"/>
        <path id="Path_423" data-name="Path 423" d="M30.59,10.1c-3.006-3.26-13.189-7.43-18.6-3.519-6.764,4.889-14.655,15.47,18.6,40.46" transform="translate(0 0)" fill="none" stroke="#ec1d30" stroke-width="12"/>
      </g>
      <path id="Path_426" data-name="Path 426" d="M2829.586,2578.173l1.969,1.76,1.893-1.76Z" transform="translate(-0.017)" fill="#ec1d30"/>
    </g>
  </g>
</svg>
