<svg xmlns="http://www.w3.org/2000/svg" width="334" height="334" viewBox="0 0 334 334">
  <g id="logo-light-02" transform="translate(-2401 -2425)">
    <rect id="Rectangle_53" data-name="Rectangle 53" width="334" height="334" transform="translate(2401 2425)" fill="#ec1d30"/>
    <g id="Group_78" data-name="Group 78">
      <text id="atlanta" transform="translate(2443 2546)" fill="#fff" font-size="69" font-family="Poppins-Bold, Poppins" font-weight="700" letter-spacing="-0.047em"><tspan x="0" y="0">atlanta</tspan></text>
      <text id="society" transform="translate(2443 2679)" fill="#fff" font-size="69" font-family="Poppins-Bold, Poppins" font-weight="700" letter-spacing="-0.047em"><tspan x="0" y="0">society</tspan></text>
      <text id="hu" transform="translate(2430 2613)" fill="#fff" font-size="69" font-family="Poppins-Bold, Poppins" font-weight="700" letter-spacing="-0.047em"><tspan x="0" y="0">hu</tspan></text>
      <text id="ane" transform="translate(2571 2613)" fill="#fff" font-size="69" font-family="Poppins-Bold, Poppins" font-weight="700" letter-spacing="-0.047em"><tspan x="0" y="0">ane</tspan></text>
      <g id="Group_73" data-name="Group 73" transform="translate(-286)">
        <g id="ahs-heart-red" transform="translate(2804.5 2565)">
          <path id="Path_422" data-name="Path 422" d="M21,10.145c3.006-3.26,13.189-7.43,18.6-3.519C46.364,11.515,54.255,22.1,21,47.086" transform="translate(2.41 -0.043)" fill="none" stroke="#fff" stroke-width="12"/>
          <path id="Path_423" data-name="Path 423" d="M30.59,10.1c-3.006-3.26-13.189-7.43-18.6-3.519-6.764,4.889-14.655,15.47,18.6,40.46" transform="translate(0 0)" fill="none" stroke="#fff" stroke-width="12"/>
        </g>
        <path id="Path_426" data-name="Path 426" d="M2829.586,2578.173l1.969,1.76,1.893-1.76Z" transform="translate(-0.017)" fill="#fff"/>
      </g>
    </g>
  </g>
</svg>
