<svg xmlns="http://www.w3.org/2000/svg" width="850" height="140" viewBox="0 0 850 140">
  <g id="logo-light-01" transform="translate(-3187 -2368)">
    <rect id="Rectangle_54" data-name="Rectangle 54" width="850" height="140" transform="translate(3187 2368)" fill="#ec1d30"/>
    <g id="Group_77" data-name="Group 77" transform="translate(205 94)">
      <text id="atlanta" transform="translate(3015 2368)" fill="#fff" font-size="69" font-family="Poppins-Bold, Poppins" font-weight="700" letter-spacing="-0.047em"><tspan x="0" y="0">atlanta</tspan></text>
      <text id="society" transform="translate(3559 2368)" fill="#fff" font-size="69" font-family="Poppins-Bold, Poppins" font-weight="700" letter-spacing="-0.047em"><tspan x="0" y="0">society</tspan></text>
      <text id="hu" transform="translate(3274 2368)" fill="#fff" font-size="69" font-family="Poppins-Bold, Poppins" font-weight="700" letter-spacing="-0.047em"><tspan x="0" y="0">hu</tspan></text>
      <text id="ane" transform="translate(3415 2368)" fill="#fff" font-size="69" font-family="Poppins-Bold, Poppins" font-weight="700" letter-spacing="-0.047em"><tspan x="0" y="0">ane</tspan></text>
      <g id="Group_75" data-name="Group 75" transform="translate(558 -245)">
        <g id="ahs-heart-red" transform="translate(2804.5 2565)">
          <path id="Path_422" data-name="Path 422" d="M21,10.145c3.006-3.26,13.189-7.43,18.6-3.519C46.364,11.515,54.255,22.1,21,47.086" transform="translate(2.41 -0.043)" fill="none" stroke="#fff" stroke-width="12"/>
          <path id="Path_423" data-name="Path 423" d="M30.59,10.1c-3.006-3.26-13.189-7.43-18.6-3.519-6.764,4.889-14.655,15.47,18.6,40.46" transform="translate(0 0)" fill="none" stroke="#fff" stroke-width="12"/>
        </g>
        <path id="Path_426" data-name="Path 426" d="M2829.586,2578.173l1.969,1.76,1.893-1.76Z" transform="translate(-0.017)" fill="#fff"/>
      </g>
    </g>
  </g>
</svg>
